inDegrees=no
num_controls=7
num_derivatives=13
num_iterations=124
num_multipliers=7
num_parameters=0
num_slacks=7
num_states=26
objective=0.461715
objective_accelerations=0.071621
objective_balance=0.005102
objective_effort=0.059207
objective_height=0.320985
objective_ligament=0.004799
solver_duration=1415.993990
status=Solve_Succeeded
success=true
DataType=double
version=3
OpenSimVersion=4.5
endheader
time	/jointset/ground_pelvis/pelvis_tilt/value	/jointset/ground_pelvis/pelvis_tx/value	/jointset/ground_pelvis/pelvis_ty/value	/jointset/hip_r/hip_flexion_r/value	/jointset/hip_r/hip_adduction_r/value	/jointset/hip_r/hip_rotation_r/value	/jointset/back/lumbar_extension/value	/jointset/patellofemoral_r/patellar_flexion_r/value	/jointset/knee_r/knee_flexion_r/value	/jointset/knee_r/knee_adduction_r/value	/jointset/knee_r/knee_rotation_r/value	/jointset/ankle_r/ankle_angle_r/value	/jointset/subtalar_r/subtalar_angle_r/value	/jointset/ground_pelvis/pelvis_tilt/speed	/jointset/ground_pelvis/pelvis_tx/speed	/jointset/ground_pelvis/pelvis_ty/speed	/jointset/hip_r/hip_flexion_r/speed	/jointset/hip_r/hip_adduction_r/speed	/jointset/hip_r/hip_rotation_r/speed	/jointset/back/lumbar_extension/speed	/jointset/patellofemoral_r/patellar_flexion_r/speed	/jointset/knee_r/knee_flexion_r/speed	/jointset/knee_r/knee_adduction_r/speed	/jointset/knee_r/knee_rotation_r/speed	/jointset/ankle_r/ankle_angle_r/speed	/jointset/subtalar_r/subtalar_angle_r/speed	/forceset/tau_hip_flexion_r	/forceset/tau_hip_adduction_r	/forceset/tau_hip_rotation_r	/forceset/tau_knee_flexion_r	/forceset/tau_ankle_angle_r	/forceset/tau_subtalar_angle_r	/forceset/tau_lumbar_extension	lambda_cid13_p0	lambda_cid14_p0	lambda_cid14_p1	lambda_cid14_p2	lambda_cid14_p3	lambda_cid14_p4	lambda_cid14_p5	/jointset/ground_pelvis/pelvis_tilt/accel	/jointset/ground_pelvis/pelvis_tx/accel	/jointset/ground_pelvis/pelvis_ty/accel	/jointset/hip_r/hip_flexion_r/accel	/jointset/hip_r/hip_adduction_r/accel	/jointset/hip_r/hip_rotation_r/accel	/jointset/back/lumbar_extension/accel	/jointset/patellofemoral_r/patellar_flexion_r/accel	/jointset/knee_r/knee_flexion_r/accel	/jointset/knee_r/knee_adduction_r/accel	/jointset/knee_r/knee_rotation_r/accel	/jointset/ankle_r/ankle_angle_r/accel	/jointset/subtalar_r/subtalar_angle_r/accel	gamma_cid13_p0	gamma_cid14_p0	gamma_cid14_p1	gamma_cid14_p2	gamma_cid14_p3	gamma_cid14_p4	gamma_cid14_p5
1	-0.2442047955330956	-0.01527868630193933	0.3793489977579722	2.181661206396846	-0.244907577036083	0.03588819612929811	-0.4363290585797026	2.152014550132905	2.152014550133034	-0.174514487453763	0.1745273924177806	0.4363321253274016	0.08662839042083344	-0.02648271124528984	-0.006627112167564441	0.0176191223817999	-0.03012884987021349	0.00086219573754737	-0.01028833297829301	0.0001594573225709429	-0.05613865642444481	-0.05613865642444051	0.004117043683062506	-0.001082618402935967	-0.001138813452937565	0.00130498312060356	-0.2386671167584647	-0.02833084971405438	-0.04552244101145845	-0.6404295183303339	0.08656681890680057	-0.009058228048841132	0.270809931516428	-0.02638138888602362	-26.68625002552356	-12.39488552708835	6.763233764542189	38.39904175041261	-848.9292689184085	56.479142382433	-1.708350817330455	-1.035426874596795	2.593554685384579	-5.967598950680711	0.09069536577776262	-1.627254328184599	0.05245977951882545	-7.70954352537182	-7.709543525372076	0.397763387264475	-0.1755572166367494	-0.2766974876902404	0.09334165761103075	1.179171398159175e-08	1.754209025870794e-10	4.069154912681895e-08	5.046083362477173e-08	2.808919179814522e-08	-4.662857981320392e-09	2.011474755794825e-07
1.01	-0.2445528766130845	-0.01539631100062635	0.379655798373944	2.181056242633386	-0.2448937784431624	0.03570942031235056	-0.4363259188467291	2.151066469963545	2.151066469963578	-0.1744488071029612	0.1745088230434229	0.4363093151325094	0.08664794938697543	-0.04298495043348829	-0.0168568323182372	0.04382016526341518	-0.09125139113294276	0.001891581451107051	-0.02535875132316468	0.0004403499303673562	-0.1335744503787142	-0.1335744503786818	0.0091347237922482	-0.002574552131773085	-0.003268312820429594	0.002649848615407153	-0.2405840557413232	-0.02840454134640262	-0.04543663815066459	-0.6417352029804101	0.08724131799358269	-0.009147127003674572	0.2727347223764168	-0.02625794526710539	-26.59661987707008	-12.43681503609738	6.791637163048589	37.68384338653998	-851.4883834534576	56.52668525752426	-1.598869689199034	-1.010577318719574	2.645253360625767	-6.242698259765641	0.1081879581436574	-1.430718680147892	0.01168310014762478	-7.775164365091443	-7.775164365087035	0.5710961717450054	-0.127459816267759	-0.1578449797749052	0.1615470673013674	3.028819400351703e-08	-5.163826556612556e-09	1.056243988573309e-07	1.26861976236351e-07	8.927580699184945e-08	-2.009597467590792e-09	5.196997501549779e-07
1.02	-0.2450615219288827	-0.01561499944750345	0.3802269842729472	2.179828430148158	-0.2448698604363067	0.03538318369345275	-0.4363208143679402	2.149341118447715	2.149341118447655	-0.1743294847812626	0.17447704465872	0.4362698561802438	0.08668225462244274	-0.05859555840706806	-0.02683986180557885	0.07049617898806011	-0.1546985942235369	0.002886078524609581	-0.03978049336841431	0.0005524064876647614	-0.2115929257184619	-0.2115929257183991	0.01484543786140959	-0.003724420471032177	-0.004468564927770017	0.004254236985664017	-0.2425009947241851	-0.02847823297874952	-0.04535083528987072	-0.6430408876304866	0.08791581708036564	-0.009236025958505411	0.2746595132364025	-0.02614772854360651	-26.50399553986354	-12.48063221215092	6.82309690081909	37.04928183295773	-853.929378448209	56.55852352846678	-1.530024574406756	-0.9860887419305508	2.688548853990512	-6.432531316253701	0.08371763776630935	-1.4975190682602	0.01869256941896978	-7.826079802467466	-7.826079802467254	0.5363701792596175	-0.1071441387211099	-0.09084803565984791	0.1452462327016709	5.802451917257435e-08	3.200593415032519e-08	2.072395038630909e-07	2.600969572135962e-07	3.878682535319286e-08	-5.265000090336852e-08	1.075313793996529e-06
1.03	-0.2457218964626734	-0.01593216580845212	0.3810670694941828	2.177955804541489	-0.2448361179657245	0.03491602663673726	-0.4363151543014551	2.146833210964815	2.146833210964629	-0.1741497469663628	0.1744354385376071	0.4362223766897922	0.08673375269739637	-0.07332726305821112	-0.03653933958979733	0.09757784959921818	-0.2200993948484032	0.003861543806536348	-0.05357533374286447	0.0005677824888348134	-0.2900282050459841	-0.290028205045968	0.02116804455600012	-0.004562086900707309	-0.00493585195395541	0.006075007744415791	-0.2442518983465218	-0.02851251479620432	-0.04509945360793804	-0.6440081634616558	0.08894820063396053	-0.009270634944304381	0.2763964971486604	-0.02601214862260353	-26.25009641101246	-12.45759787027875	6.826724229869628	36.13029598075781	-855.8083874057832	56.6673053201147	-1.421912510348169	-0.9537695586912992	2.726502738658236	-6.63476840072991	0.1043859112240125	-1.309104899841514	-0.008813532841442833	-7.858214465215679	-7.858214465222869	0.6899957316506357	-0.06672608838519443	-0.01094856706791463	0.2050325511578399	8.585512847578613e-08	6.960946024671355e-08	3.092289175961495e-07	3.93911875317022e-07	-1.284170319191702e-08	-1.038342172365905e-07	1.633346835483654e-06
1.04	-0.2465250218629515	-0.0163447053996477	0.382179676736326	2.175420988135547	-0.2447926358547593	0.03431319350071604	-0.4363096952046158	2.143539758195176	2.143539758194862	-0.1739048251210981	0.1743865261135353	0.4361729684228816	0.08680436649067673	-0.08714573170455921	-0.04591450785495849	0.1250005831695662	-0.2871367540783425	0.004834006601189028	-0.06691570922947848	0.0005122125577048407	-0.3687019830663497	-0.3687019830663841	0.02788224393426543	-0.005185681062161133	-0.00485432021894152	0.008077380651003616	-0.2460028019688549	-0.02854679661365885	-0.0448480719260029	-0.6449754392928254	0.08998058418755446	-0.009305243930103296	0.2781334810609216	-0.02588785042115579	-25.99247125141374	-12.43573561252201	6.832622984479907	35.28058852640047	-857.5648161917388	56.7653408019721	-1.347377373447794	-0.9212268381190633	2.756761445828499	-6.759843037268295	0.0831171403114748	-1.406626090692972	0.004503382958904767	-7.873779541036098	-7.873779541036674	0.614688715994578	-0.06432968507682328	0.01891571658007305	0.1815666622688746	1.144650747524063e-07	1.032819583071953e-07	4.098023070749986e-07	5.289518739515691e-07	-4.780912204274014e-08	-1.481272269532184e-07	2.182446512772542e-06
